<svg xmlns="http://www.w3.org/2000/svg" viewBox="0 0 411.59 319.08"><defs><style>.cls-1{fill:#FFFFFF;}</style></defs><g id="Layer_2" data-name="Layer 2"><g id="Layer_1-2" data-name="Layer 1"><rect class="cls-1" x="113.13" y="71.98" width="6" height="95.98" rx="3"/><rect class="cls-1" x="132.84" y="58.89" width="7.63" height="122.15" rx="3.82"/><rect class="cls-1" x="154.95" y="45.81" width="9.27" height="148.33" rx="4.64"/><rect class="cls-1" x="179.44" y="32.72" width="10.91" height="174.5" rx="5.45"/><rect class="cls-1" x="208.7" y="19.63" width="12.54" height="200.68" rx="6.27"/><rect class="cls-1" x="237.97" y="6.54" width="14.18" height="226.85" rx="7.09"/><rect class="cls-1" x="267.64" width="15" height="239.94" rx="7.5"/><path class="cls-1" d="M5.17,308.71H31a5,5,0,0,0,3.62-1.52A5.16,5.16,0,0,0,31,298.38H15.5a15,15,0,0,1-7.79-2.09,15.84,15.84,0,0,1-5.62-5.62,15.64,15.64,0,0,1,0-15.62,15.76,15.76,0,0,1,5.62-5.62,15,15,0,0,1,7.79-2.09H38.76a4.93,4.93,0,0,1,3.65,1.54,5.16,5.16,0,0,1-3.65,8.79H15.5a4.93,4.93,0,0,0-3.63,1.54,5.1,5.1,0,0,0,0,7.3A5,5,0,0,0,15.5,288H31a15,15,0,0,1,7.78,2.09,15.79,15.79,0,0,1,5.62,5.6,15.6,15.6,0,0,1,0,15.6A15.68,15.68,0,0,1,38.82,317,15,15,0,0,1,31,319H5.17a5,5,0,0,1-3.65-1.52,5.13,5.13,0,0,1,0-7.29A5,5,0,0,1,5.17,308.71Z"/><path class="cls-1" d="M78.79,267.38a23.43,23.43,0,0,1,9.11,1.7,15,15,0,0,1,6.55,5,13.84,13.84,0,0,1,2.44,8.36,14,14,0,0,1-2.44,8.4A15.23,15.23,0,0,1,87.9,296a23.08,23.08,0,0,1-9.11,1.74h-13a5,5,0,0,0-3.59,1.49,5.1,5.1,0,0,0-1.5,4.1v10.57a5,5,0,0,1-1.34,3.47A5.08,5.08,0,0,1,56,319a.32.32,0,0,1-.16,0h-.28a4.88,4.88,0,0,1-3.07-1,5.09,5.09,0,0,1-2.09-4.14V292.66a5.12,5.12,0,0,1,5.72-5.25H78.79a21.14,21.14,0,0,0,3.89-.33,5.18,5.18,0,0,0,2.8-1.4,4.43,4.43,0,0,0,1-3.2,4.19,4.19,0,0,0-1-3.13,5.32,5.32,0,0,0-2.8-1.32,22.1,22.1,0,0,0-3.89-.32H55.52a5.17,5.17,0,0,1,0-10.33H78.79Z"/><path class="cls-1" d="M111.76,272.51v41.36c.12,6.69-10.46,6.72-10.33,0V272.51C101.33,265.83,111.85,265.8,111.76,272.51Zm35.78,0v41.36c.13,6.69-10.45,6.72-10.33,0V272.51C137.12,265.83,147.64,265.8,147.54,272.51Z"/><path class="cls-1" d="M164.6,308.71h25.87a5,5,0,0,1,3.65,1.53,5.16,5.16,0,0,1-3.65,8.8h-31a5,5,0,0,1-3.63-1.52,4.93,4.93,0,0,1-1.54-3.65V272.55a4.93,4.93,0,0,1,1.54-3.65,5,5,0,0,1,3.63-1.52h31a5.17,5.17,0,0,1,0,10.33H164.6m0,5.4v20.63h0M185.31,288a5.17,5.17,0,0,1,0,10.34H163a5.37,5.37,0,0,1-3.67-1.56,5.07,5.07,0,0,1,0-7.2A5.31,5.31,0,0,1,163,288Z"/><path class="cls-1" d="M268.76,308.71h25.87a5.17,5.17,0,0,1,0,10.33h-31a5,5,0,0,1-3.63-1.52,5,5,0,0,1-1.53-3.65V272.55A5,5,0,0,1,260,268.9a5,5,0,0,1,3.63-1.52h31a5.17,5.17,0,0,1,0,10.33H268.76m0,5.4v20.63h0M289.46,288a5.17,5.17,0,0,1,0,10.34H267.19a5.35,5.35,0,0,1-3.66-1.56,5.07,5.07,0,0,1,0-7.2,5.28,5.28,0,0,1,3.66-1.58Z"/><path class="cls-1" d="M241,272.51a4.93,4.93,0,0,1,1.54-3.63,5,5,0,0,1,3.67-1.54,5.26,5.26,0,0,1,5.16,5.17v41.36a4.93,4.93,0,0,1-1.54,3.65,5,5,0,0,1-3.62,1.52,5.21,5.21,0,0,1-2-.38,4.53,4.53,0,0,1-1.71-1.16l-11.44-11.45q-4.81-4.83-9.64-9.65T210,285v28.9a5.17,5.17,0,0,1-10.33,0V272.51a5,5,0,0,1,1.52-3.63,4.93,4.93,0,0,1,3.65-1.54,5.06,5.06,0,0,1,3.63,1.54l11.47,11.47,9.62,9.63q4.81,4.8,11.44,11.47Z"/><path class="cls-1" d="M359.88,272.51v41.36a5,5,0,0,1-1.53,3.65,5,5,0,0,1-3.63,1.52,5.08,5.08,0,0,1-3.67-1.54l-19.6-19.64L311.81,317.5a5.14,5.14,0,0,1-8.79-3.63V272.51a5,5,0,0,1,1.52-3.63,5.08,5.08,0,0,1,7.29,0,5,5,0,0,1,1.52,3.63v28.94L327.82,287a4.38,4.38,0,0,1,1.68-1.16,5.33,5.33,0,0,1,1.95-.38,5.24,5.24,0,0,1,1.91.38,4.6,4.6,0,0,1,1.72,1.16l14.47,14.47V272.51a5,5,0,0,1,1.52-3.63,5.17,5.17,0,0,1,8.81,3.63Z"/><path class="cls-1" d="M370.22,308.71h25.87a5,5,0,0,0,3.62-1.52,5.16,5.16,0,0,0-3.62-8.81H380.55a15,15,0,0,1-7.79-2.09,15.84,15.84,0,0,1-5.62-5.62,15.64,15.64,0,0,1,0-15.62,15.76,15.76,0,0,1,5.62-5.62,15,15,0,0,1,7.79-2.09h23.27a5.17,5.17,0,0,1,0,10.33H380.55a5.26,5.26,0,0,0-5.17,5.17,5.24,5.24,0,0,0,5.17,5.2h15.54a15,15,0,0,1,7.78,2.09,15.79,15.79,0,0,1,5.62,5.6,15.54,15.54,0,0,1,0,15.6,15.68,15.68,0,0,1-5.62,5.62,15,15,0,0,1-7.78,2.09H370.22a5.17,5.17,0,0,1,0-10.33Z"/><path class="cls-1" d="M107.29,288h32.24c5.21-.12,5.23,10.46,0,10.34H107.29C102.09,298.47,102.07,288,107.29,288Z"/></g></g></svg>