<?xml version="1.0" encoding="utf-8"?>
<!-- Generator: Adobe Illustrator 27.5.0, SVG Export Plug-In . SVG Version: 6.00 Build 0)  -->
<svg version="1.1" xmlns="http://www.w3.org/2000/svg" xmlns:xlink="http://www.w3.org/1999/xlink" x="0px" y="0px"
	 viewBox="0 0 500 500" style="enable-background:new 0 0 500 500;" xml:space="preserve">
<g id="BACKGROUND">
	<rect style="fill:#FFFFFF;stroke:#272525;stroke-miterlimit:10;" width="500" height="500"/>
</g>
<g id="OBJECTS">
	<g>
		<g>
			<path style="opacity:0.4;fill:#ACD5D4;" d="M76.766,257.406c0,0-46.334-2.925-52.174,63.933s35.042,94.855,88.774,70.619h306.037
				c0,0,33.485-5.432,44.776-36.354c11.292-30.922-8.177-41.368-8.177-41.368s14.796-2.507,17.911-20.475
				s-11.291-29.668-11.291-29.668s33.485-27.161,20.247-63.097c-13.238-35.936-54.121-22.147-54.121-22.147
				s-0.779-23.4-19.079-32.593c-18.3-9.193-31.928,13.789-31.928,13.789s0-78.14-67.359-71.454s-65.802,67.694-65.802,67.694
				s-10.902-16.297-31.538-10.029s-24.14,32.175-24.14,32.175s-31.538-35.518-70.864-4.596s-17.911,76.469-17.911,76.469
				S87.668,243.199,76.766,257.406z"/>
			<path style="opacity:0.4;fill:#ACD5D4;" d="M119.266,291.542c0,0-35.286-2.228-39.733,48.688
				c-4.448,50.916,26.687,72.237,67.606,53.78h233.063c0,0,25.501-4.137,34.1-27.686c8.599-23.549-6.227-31.504-6.227-31.504
				s11.268-1.909,13.64-15.593c2.372-13.684-8.599-22.594-8.599-22.594s25.501-20.685,15.419-48.052
				c-10.082-27.367-41.216-16.866-41.216-16.866s-0.593-17.821-14.529-24.821c-13.936-7.001-24.315,10.501-24.315,10.501
				s0-59.508-51.298-54.416c-51.298,5.092-50.112,51.552-50.112,51.552s-8.303-12.411-24.018-7.637
				c-15.715,4.773-18.384,24.503-18.384,24.503s-24.018-27.049-53.966-3.5c-29.948,23.549-13.64,58.235-13.64,58.235
				S127.568,280.723,119.266,291.542z"/>
		</g>
		<g>
			<g>
				<g>
					<path style="fill:#18203D;" d="M192.804,288.305c-10.414-3.145-15.021,19.474-19.224,21.472
						c-4.203,1.999,3.223-12.239-1.578-15.631c-4.801-3.392-11.696,1.251-12.491,15.644c-0.795,14.393-8.525,20.465-11.878,8.986
						c-3.353-11.479-12.915-5.297-12.285,5.24c0.63,10.538,7.726,18.482,3.605,21.855c-4.121,3.373-8.822-9.129-14.754-11.441
						c-5.932-2.312-9.932,13.836-7.394,19.386c2.539,5.55,16.424,10.146,15.081,15.376c-1.343,5.23-8.057,2.137-13.345-3.249
						c-5.288-5.385-8.299,2.703-5.272,11.81c3.027,9.107,14.568,14.487,21.924,12.944c7.357-1.543,12.265,2.118,14.427,7.506
						c2.161,5.389,30.134,1.05,32.175-6.337c2.042-7.387-9.921-2.902-14.585-4.002c-4.664-1.101-1.219-6.548,1.933-7.656
						c3.152-1.108,22.691-3.471,26.189-9.566c3.498-6.095,4.218-14.046,1.036-16.523c-3.183-2.477-16.652,4.49-21.908,4.252
						c-5.256-0.238,8.562-9.064,14.786-11.091c6.224-2.027,11.736-15.967,11.382-20.36c-0.354-4.393-9.075,8.175-17.001,6.35
						c-7.926-1.825,11.363-11.438,13.893-15.268c2.53-3.83,3.303-12.428,1.145-14.69c-2.158-2.262-9.829,9.416-13.791,9.285
						C180.914,312.466,203.48,291.53,192.804,288.305z"/>
				</g>
				<g>
					<path style="fill:#18203D;" d="M62.117,311.844C69.8,307,78.53,324.181,82.356,324.856c3.826,0.675-5.311-9.135-2.201-12.93
						c3.111-3.795,9.691-1.59,13.526,9.817c3.836,11.407,11.405,14.577,11.554,4.595c0.15-9.982,9.218-7.131,11.051,1.49
						c1.833,8.621-2.114,16.59,1.951,18.389c4.065,1.8,5.073-9.305,9.333-12.483c4.26-3.178,11.066,8.93,10.255,13.96
						c-0.811,5.03-10.965,11.812-8.723,15.723c2.242,3.911,6.958-0.069,10.018-5.577c3.06-5.508,7.279,0.333,6.865,8.334
						c-0.414,8.001-8.508,14.893-14.771,15.285c-6.263,0.392-9.401,4.428-9.944,9.244c-0.543,4.816-24.018,7.536-27.301,2.044
						c-3.283-5.492,7.34-4.538,10.849-6.459c3.509-1.921-0.473-5.541-3.256-5.733c-2.783-0.192-19.032,2.245-23.2-1.884
						c-4.169-4.128-6.514-10.368-4.502-13.067c2.012-2.7,14.399-0.084,18.576-1.442c4.177-1.358-8.903-5.393-14.363-5.643
						c-5.459-0.25-12.991-10.244-13.681-13.858c-0.69-3.614,9.119,4.564,15.092,1.335c5.973-3.229-11.685-6.682-14.571-9.203
						c-2.886-2.52-5.418-9.269-4.183-11.568c1.235-2.3,10.001,5.395,13.16,4.41S54.241,316.809,62.117,311.844z"/>
				</g>
				<g>
					<path style="fill:#6DA1A4;" d="M128.113,265.059c-9.675,1.075-5.51,21.305-8.265,24.427
						c-2.755,3.122-1.653-11.204-6.796-12.306c-5.143-1.102-9.183,5.143-4.775,17.265c4.408,12.122,0.184,19.836-6.612,11.571
						c-6.796-8.265-12.489,0.184-8.265,8.632c4.224,8.449,12.857,12.489,10.653,16.714s-10.469-4.408-16.163-4.224
						c-5.694,0.184-3.306,14.877,0.735,18.55c4.041,3.673,17.081,2.571,17.815,7.347c0.735,4.775-5.877,4.592-12.122,2.02
						c-6.245-2.571-5.877,5.143-0.184,11.571c5.694,6.428,17.081,6.796,22.591,2.939c5.51-3.857,10.836-2.571,14.509,1.102
						c3.673,3.673,25.162-9.734,24.244-16.53c-0.918-6.796-9.183,1.102-13.408,1.837c-4.224,0.735-3.306-4.959-1.102-6.979
						c2.204-2.02,17.448-10.836,18.183-17.081c0.735-6.245-1.469-13.04-4.959-13.959c-3.49-0.918-12.122,9.551-16.53,11.204
						c-4.408,1.653,3.857-10.469,8.265-14.326c4.408-3.857,4.041-17.264,2.204-20.754c-1.837-3.49-4.592,9.918-11.755,11.204
						c-7.163,1.286,5.326-13.408,6.061-17.448c0.735-4.041-1.653-11.387-4.224-12.489c-2.571-1.102-4.775,11.204-8.081,12.489
						C126.828,289.119,138.031,263.957,128.113,265.059z"/>
					<path style="fill:#528E8D;" d="M126.093,281.037c0,0-16.665,62.59,2.681,127.335l6.083-1.346
						C134.856,407.026,114.607,343.627,126.093,281.037z"/>
				</g>
				<g>
					<path style="fill:#6DA1A4;" d="M232.033,338.329c-5.041-6.199-17.152,5.665-20.531,5.151
						c-3.379-0.514,6.997-6.119,5.473-10.158c-1.525-4.039-7.63-4.052-14.037,4.376c-6.407,8.429-13.608,8.941-10.924,0.579
						c2.684-8.363-5.677-8.538-9.63-1.868c-3.953,6.67-2.906,14.423-6.801,14.779c-3.895,0.356-1.61-9.184-4.267-13.032
						c-2.657-3.848-11.736,4.329-12.476,8.75c-0.74,4.421,5.816,12.931,2.847,15.56c-2.969,2.629-5.781-2.016-6.781-7.468
						c-1-5.452-6.161-1.771-8.067,5.015c-1.906,6.786,2.901,14.808,8.011,16.897c5.11,2.089,6.59,6.336,5.687,10.503
						c-0.903,4.167,17.9,13.04,22.182,9.386c4.282-3.654-4.842-5.848-7.226-8.437c-2.384-2.589,1.953-4.485,4.327-3.862
						c2.374,0.623,15.232,7.226,19.868,4.958c4.636-2.268,8.347-6.809,7.43-9.625c-0.917-2.816-11.978-4.122-15.078-6.429
						c-3.1-2.307,8.939-1.99,13.56-0.662s13.71-4.884,15.303-7.702c1.592-2.818-8.885,1.238-12.956-3.134
						c-4.07-4.372,11.62-2.282,14.735-3.571c3.115-1.289,7.124-6.201,6.742-8.465c-0.382-2.264-9.854,1.683-12.211-0.027
						C214.857,348.133,237.201,344.684,232.033,338.329z"/>
					<path style="fill:#528E8D;" d="M220.108,344.035c0,0-50.601,16.313-86.687,58.436l3.632,3.6
						C137.053,406.071,171.808,363.922,220.108,344.035z"/>
				</g>
				<g>
					<path style="fill:#4A888C;" d="M113.506,398.988c0,0-14.523-20.935-25.225-22.273s-4.5,4.135-6.932,5.229
						c-2.432,1.095-11.431-8.148-20.917-8.026c-9.486,0.122-3.648,4.256-4.743,5.959c-1.094,1.703-9.729-1.703-14.35,2.432
						c-4.621,4.135,1.338,4.378,0.973,6.324s-9.85,4.743-9.729,12.769c0.122,8.026,14.35-2.554,17.633-3.892
						c3.284-1.338,1.216,1.946,2.554,4.013c1.338,2.067,9.607-4.256,13.255-6.567c3.648-2.311,4.013-1.824,2.554,1.338
						c-1.459,3.162,3.162,4.135,11.431,1.094c8.27-3.04,3.405-0.851,3.284,1.703S111.125,397.669,113.506,398.988z"/>
					<path style="fill:#337676;" d="M41.934,395.97c0,0,41.502-18.572,76.56,10.991l3.411-2.274
						C121.906,404.688,84.749,373.662,41.934,395.97z"/>
				</g>
				<g>
					<path style="fill:#6DA1A4;" d="M120.425,396.775c0,0-10.507-33.004-23.878-39.018c-13.371-6.014-7.498,3.575-11.096,4.025
						c-3.598,0.451-11.598-15.154-23.972-18.785c-12.374-3.632-6.441,4.073-8.543,5.848c-2.102,1.775-11.961-6.099-19.617-2.573
						c-7.656,3.526-0.011,6.223-1.262,8.605c-1.251,2.383-14.694,2.227-17.743,12.705c-3.049,10.477,19.666,2.414,24.467,1.988
						c4.801-0.426,0.803,3.014,1.715,6.235c0.912,3.221,14.184-1.692,19.847-3.237c5.664-1.545,5.943-0.767,2.784,2.758
						c-3.159,3.525,2.456,6.636,14.416,5.989c11.96-0.647,4.765,0.254,3.586,3.524C79.951,388.109,117.859,394.109,120.425,396.775z
						"/>
					<path style="fill:#528E8D;" d="M28.634,364.26c0,0,61.345-7.551,95.089,44.868l5.341-1.592
						C129.063,407.536,93.178,352.379,28.634,364.26z"/>
				</g>
			</g>
			<g>
				<path style="fill:#18203D;" d="M401.289,397.324h-48.786c0,0,2.087-5.479,7.827-8.87c5.74-3.392,23.741-0.261,23.741-0.261
					s-11.218-9.914-18.523-11.74c-7.305-1.826-15.914,3.131-16.697,3.392c-0.783,0.261,3.652-11.479,16.175-14.349
					c12.523-2.87,28.958,9.653,28.958,9.653s-5.479-15.914-13.044-21.654s-24.262,3.652-24.262,3.652s13.566-20.871,27.654-18.784
					c14.088,2.087,21.132,25.828,21.132,25.828s1.044-23.741-2.87-31.567s-22.436-2.348-23.219-2.087
					c-0.783,0.261,19.306-14.349,30.524-11.218c11.218,3.131,10.696,32.872,10.696,32.872s6.261-25.045,17.219-31.046
					c10.957-6,28.176-2.087,28.176-2.087s-13.044,3.652-17.74,7.044c-4.696,3.392-20.871,28.958-20.871,28.958
					s15.392-17.219,28.437-16.436c13.044,0.783,21.393,20.088,21.393,20.088s-7.566-9.392-15.653-9.914
					c-8.087-0.522-26.871,11.479-26.871,11.479s19.566-3.913,27.915,2.348c8.348,6.261,8.609,31.828,8.609,31.828
					s-9.131-20.349-19.566-22.697c-10.435-2.348-26.61,4.696-26.61,4.696s18.001-1.826,27.654,7.044
					c9.653,8.87,8.348,28.176,8.348,28.176s-11.218-15.131-21.393-20.088c-10.174-4.957-23.741-0.783-23.741-0.783
					s15.914,1.304,21.914,5.74s6.712,11.859,6.712,11.859L401.289,397.324z"/>
				<path style="fill:#528E8D;" d="M368.667,269.894c-4.327,3.136-1.832,10.786-1.601,18.429c0.23,7.643-3.59,3.726-7.539-2.346
					c-3.949-6.072-13.929,1.483-2.922,11.172c11.007,9.689,3.012,7.97-2.457,2.267c-5.469-5.703-14.385,2.109-2.338,10.013
					c12.047,7.903,7.545,15.571,0.874,7.669c-6.671-7.902-14.118,0.83-7.687,6.679c6.431,5.85,14.066,3.146,15.336,6.315
					c1.27,3.169-7.121,5.95-15.57,2.169c-8.449-3.78-10.703,12.149,4.961,12.994c15.664,0.845,10.552,10.316,4.198,7.91
					c-6.354-2.406-16.221-5.706-15.519,3.569c0.702,9.275,14.795,6.401,21.356,6.342c6.561-0.059-2.888,10.313-12.368,8.104
					c-9.48-2.209-13.785,8.585-2.691,13.439c11.094,4.854,20.268-6.711,24.321-5.903c4.053,0.808-3.394,9.54-9.981,10.243
					c-6.587,0.703-17.288,4.788-9.587,13.807c7.701,9.019,24.94-5.233,30.42-13.184c5.481-7.951,18.189-0.451,27.431-8.358
					c9.242-7.907,5.363-18.385-1.928-16.205c-7.291,2.18-14.799,9.726-18.233,6.9c-3.434-2.826,1.187-8.124,10.978-13.643
					c9.791-5.52,6.556-15.971,1.369-15.32c-5.187,0.651-11.57,12.329-17.118,13.934c-5.548,1.605-4.352-6.734,3.669-11.034
					s11.39-13.197,6.736-15.104c-4.654-1.908-10.187,7.332-14.018,11.693c-3.831,4.362-8.381-2.81-2.3-6.974
					c6.081-4.164,14.24-9.211,11.665-14.691c-2.575-5.479-9.216,4.575-13.828,6.97c-4.612,2.395-2.738-6.776,5.756-9.445
					c8.494-2.669,10.754-8.061,8.702-10.509s-9.875,3.328-13.791,4.461c-3.916,1.133-2.931-5.695,4.268-8.284
					c5.841-2.101,10.97-8.923,7.303-11.328c-3.666-2.405-6.644,0.769-10.105,3.962c-3.461,3.194-1.735-3.123,0.306-8.11
					C382.215,275.113,375.976,264.597,368.667,269.894z"/>
				<path style="fill:#6DA1A4;" d="M451.854,286.368c-5.339-0.219-8.12,7.332-12.674,13.474c-4.554,6.142-5.127,0.701-4.465-6.512
					c0.662-7.213-11.853-7.466-9.215,6.959c2.638,14.425-2.573,8.123-3.333,0.257s-12.599-7.256-8.038,6.411
					c4.56,13.667-3.724,16.897-4.065,6.562c-0.341-10.336-11.597-8.095-10.172,0.481c1.424,8.576,9.092,11.184,8.126,14.458
					c-0.966,3.275-9.275,0.259-13.566-7.943c-4.291-8.202-15.928,2.906-4.156,13.273c11.772,10.367,1.892,14.635-1.605,8.81
					c-3.498-5.825-9.198-14.528-14.393-6.812c-5.195,7.716,7.648,14.19,12.835,18.209c5.187,4.018-8.656,6.307-14.729-1.301
					c-6.073-7.607-16.139-1.801-10.438,8.882c5.701,10.684,20.068,7.288,22.749,10.434c2.681,3.145-8.575,5.386-14.181,1.857
					c-5.606-3.529-16.537-6.951-16.079,4.899c0.458,11.85,22.819,11.342,32.047,8.496c9.228-2.846,14.557,10.914,26.711,10.432
					c12.153-0.482,15.599-11.11,8.525-13.916c-7.074-2.806-17.642-1.533-18.588-5.879c-0.945-4.346,5.964-5.642,17.07-3.909
					c11.105,1.733,15.041-8.476,10.565-11.178c-4.475-2.702-16.721,2.51-22.07,0.333c-5.349-2.177,0.755-7.982,9.716-6.389
					c8.961,1.594,17.116-3.303,14.645-7.684c-2.472-4.381-12.538-0.556-18.248,0.495c-5.709,1.051-4.838-7.398,2.515-6.899
					c7.353,0.499,16.885,1.591,18.258-4.305c1.373-5.897-10.068-2.118-15.172-3.095c-5.104-0.977,2.049-7.016,10.37-3.849
					c8.321,3.167,13.435,0.334,13.341-2.859c-0.094-3.193-9.813-3.505-13.589-5.042c-3.776-1.537,1.227-6.287,8.483-3.859
					c5.886,1.969,14.139-0.208,12.751-4.368c-1.388-4.159-5.691-3.513-10.387-3.15c-4.696,0.363,0.572-3.526,5.264-6.176
					C459.256,298.857,460.873,286.738,451.854,286.368z"/>
			</g>
		</g>
		<g>
			<g>
				<g>
					<path style="fill:#82435C;" d="M301.971,253.519c-6.756,9.042-20.37,17.313-37.319,21.856
						c-29.442,7.892-64.824-5.941-79.166-21.055c-4.063-4.281-6.436-8.664-6.509-12.682c-0.029-1.485,0.087-2.854,0.32-4.135
						c2.563-14.328,19.919-15.755,19.919-15.755s-5.067-18.215,9.1-21.928c14.167-3.713,23.952-16.526,24.287-34.407l7.601,0.742
						l28.219,2.752l2.301,0.219c0,0-1.689,39.459,9.77,41.148c11.474,1.689,8.78,11.809,8.78,11.809
						c10.425,4.397,15.74,10.09,17.021,16.191C307.359,243.253,305.713,248.51,301.971,253.519z"/>
					<path style="fill:#FFFFFF;" d="M232.604,165.412l7.601,0.742c-0.262,0.786-0.481,1.602-0.612,2.461
						c-2.519,15.857-10.076,30.082-27.549,33.504c-17.473,3.422-10.862,20.822-10.862,20.822
						c-10.367,2.49-17.429,8.547-21.885,14.561c2.563-14.328,19.919-15.755,19.919-15.755s-5.067-18.215,9.1-21.928
						C222.484,196.106,232.269,183.293,232.604,165.412z"/>
					<path style="fill:#FFFFFF;" d="M306.296,238.274c-7.033-9.858-20.4-13.818-20.4-13.818s1.98-7.382-6.843-11.882
						c-8.824-4.499-7.936-1.441-9.013-33.14c-0.146-4.106-0.714-7.601-1.616-10.527l2.301,0.219c0,0-1.689,39.459,9.77,41.148
						c11.474,1.689,8.78,11.809,8.78,11.809C299.7,226.48,305.014,232.173,306.296,238.274z"/>
					<path style="fill:#4B1C4A;" d="M301.971,253.519c-6.756,9.042-20.37,17.313-37.319,21.856
						c-29.442,7.892-64.824-5.941-79.166-21.055c5.387-6.96,12.333-21.098,28.714-25.19c25.219-6.305,10.324-31.815,26.661-36.969
						c16.323-5.169,29.383,11.809,30.592,29.544C272.471,236.599,296.904,238.376,301.971,253.519z"/>
				</g>
				<g>
					<path style="fill:#D6DD40;" d="M342.013,351.206c-2.039,5.431-19.701,10.527-19.701,10.527l-3.946-7.717l-34.8-68.086
						l1.5-26.777l0.699-12.304l0.175-3.029c0,0,12.566,4.077,16.978,10.527c2.81,4.091,18.652,39.882,29.311,66.833
						C338.344,336.66,342.756,349.226,342.013,351.206z"/>
					<path style="opacity:0.7;fill:#FFFFFF;" d="M332.228,321.182c-11.954-24.739-29.791-65.756-35.004-69.221
						c-1.937-1.296-6.174-3.116-11.459-5.111l0.175-3.029c0,0,12.566,4.077,16.978,10.527
						C305.728,258.44,321.57,294.23,332.228,321.182z"/>
					<path style="opacity:0.3;fill:#4A6C8F;" d="M318.366,354.017l-34.8-68.086l1.5-26.777c5.664,5.46,13.134,13.454,15.958,17.939
						c4.412,7.018-0.189,25.874-0.189,28.291c0,2.402,7.615,1.398,15.041,12.027C322.079,326.308,321.264,344.901,318.366,354.017z"
						/>
				</g>
				<g>
					<g>
						<path style="fill:#D6DD40;" d="M304.286,401.411H177.594c0,0,30.912-65.552,31.247-67.591
							c0.277-1.645-6.581-59.408-8.882-81.074c-0.233-2.228-0.408-4.062-0.539-5.431c-0.146-1.704-0.204-2.665-0.146-2.679
							c0.568-0.189,35.018-13.862,45.75-13.236c6.8,0.408,29.689,8.402,37.931,11.343c0.917,0.335,1.66,0.597,2.169,0.786
							c0.087,0.029,0.175,0.058,0.248,0.087c0.364,0.131,0.568,0.204,0.568,0.204s0.437,1.325,1.15,3.524
							c2.432,7.601,8.038,25.656,9.683,35.208c0,0.029,0.015,0.058,0.015,0.087c0.16,0.976,0.291,1.849,0.364,2.621
							c0.262,2.679-0.51,5.839-1.82,9.071c-3.8,9.45-12.114,19.453-12.114,19.453l12.42,51.632L304.286,401.411z"/>
						<path style="opacity:0.3;fill:#4A6C8F;" d="M295.329,294.337c-3.804,9.441-12.112,19.448-12.112,19.448
							s-54.306,27.806-65.249,42.515c-8.185,11.016-28.199,33.861-38.219,45.112h-2.154c0,0,30.907-65.557,31.24-67.587
							c0.098-0.554-0.616-7.459-1.686-17.22c-1.329-11.989-3.2-28.273-4.801-42.33c-0.96-8.468-1.809-16.124-2.388-21.528
							c2.265,5.034,4.788,11.275,7.484,17.577c3.188,7.447,6.597,15.004,10.032,20.777c2.942,4.936,5.908,8.591,8.788,9.798
							c11.681,4.899,21.479-6.782,30.526-7.914c9.059-1.133-1.12,5.662,0.751,9.798C259.055,306.08,280.14,302.695,295.329,294.337z
							"/>
						<path style="opacity:0.3;fill:#4A6C8F;" d="M217.476,291.1c-3.126,7.816-7.225,17.983-10.327,25.504
							c-1.329-11.989-3.2-28.273-4.801-42.33c1.6-1.354,3.36-2.696,5.096-3.951C210.632,277.77,214.042,285.328,217.476,291.1z"/>
						<path style="opacity:0.3;fill:#4A6C8F;" d="M304.286,401.411h-80.462c-0.044-0.218,0.014-0.437,0.189-0.641
							c2.65-3.189,45.022-22.409,71.624-35.353L304.286,401.411z"/>
					</g>
					<path style="opacity:0.7;fill:#FFFFFF;" d="M296.773,282.553c-2.796-11.037-7.994-25.874-12.275-36.169
						c-14.299-5.286-35.266-11.503-40.988-12.1c-6.945-0.743-33.14,6.931-44.09,13.032c-0.146-1.704-0.204-2.665-0.146-2.679
						c0.568-0.189,35.018-13.862,45.75-13.236c6.8,0.408,29.689,8.402,37.931,11.343c0.917,0.335,1.66,0.597,2.169,0.786
						c0.087,0.029,0.175,0.058,0.248,0.087c0.364,0.131,0.568,0.204,0.568,0.204s0.437,1.325,1.15,3.524
						C289.522,254.946,295.128,273.001,296.773,282.553z"/>
				</g>
				<g>
					<g>
						<g>
							<path style="fill:#D6DD40;" d="M342.013,351.206c0.204,4.194-26.981,21.026-42.109,30.053
								c-5.824,3.495-9.858,5.81-9.858,5.81s-8.736-2.636-14.925-16.599c-0.277-0.626-0.553-1.267-0.815-1.936
								c-0.379-0.961-0.757-1.966-1.107-3.029c0,0,2.053-1.369,5.3-3.553c11.153-7.426,36.46-24.273,41.585-27.287
								c4.659-2.752,9.741-0.51,13.847,3.232c0.014,0,0.014,0,0.014,0c2.941,2.694,5.373,6.159,6.771,9.1
								C341.503,348.644,341.955,350.114,342.013,351.206z"/>
							<path style="fill:#CA404E;" d="M299.904,381.259c-5.824,3.495-9.858,5.81-9.858,5.81s-8.736-2.636-14.925-16.599
								c-0.277-0.626-0.553-1.267-0.815-1.936c-0.379-0.961-0.757-1.966-1.107-3.029c0,0,2.053-1.369,5.3-3.553
								C284.571,362.316,298.695,364.922,299.904,381.259z"/>
							<path style="opacity:0.3;fill:#4A6C8F;" d="M342.013,351.206c0.277,5.81-51.967,35.863-51.967,35.863
								s-8.736-2.636-14.925-16.599c13.672-1.616,36.664-8.168,38.338-8.94c2.213-1.005-18.841-0.597-12.435-3.8
								c4.994-2.504,26.515-5.737,39.692-10.731C341.503,348.644,341.955,350.114,342.013,351.206z"/>
							<path style="opacity:0.7;fill:#FFFFFF;" d="M333.932,337.898c-3.771-0.99-9.537-2.344-12.449-0.83
								c-3.815,1.995-36.256,24.025-47.176,31.466c-0.379-0.961-0.757-1.966-1.107-3.029c0,0,40.275-26.952,46.885-30.84
								C324.744,331.913,329.826,334.156,333.932,337.898z"/>
						</g>
						<g>
							<g>
								<path style="fill:#DC8865;" d="M294.108,379.949c0,0-5.65,7.091-8.809,7.484c-3.145,0.393-7.746-3.145-7.746-3.145
									s-6.96,5.125-9.202,5.388c-0.349,0.044-0.641,0-0.903-0.087c-1.427-0.48-1.718-2.548-1.718-2.548s-4.339,1.849-6.305,1.718
									c-1.98-0.131-3.16-2.242-3.16-2.242s-3.684,1.31-5.65,1.441c-1.966,0.131-3.16-2.228-3.16-2.228s-6.858,2.169-6.305-0.393
									c0.058-0.291,1.325-2.301,2.97-4.776c2.941-4.412,7.105-10.294,7.95-10.542c1.311-0.393,8.139,0.859,8.139,0.859
									l16.818-4.601c0,0,0.859,0.044,2.286,0.393c1.966,0.466,5.052,1.514,8.489,3.815c2.767,1.849,4.325,4.048,5.213,5.853
									C293.992,378.391,294.108,379.949,294.108,379.949z"/>
								<path style="opacity:0.7;fill:#FFFFFF;" d="M279.315,366.67c-6.494,2.257-16.832,6.611-16.832,6.611
									s-8.081-2.883-9.96-1.441c-1.005,0.772-4.936,4.98-8.401,8.722c2.941-4.412,7.105-10.294,7.95-10.542
									c1.311-0.393,8.139,0.859,8.139,0.859l16.818-4.601C277.029,366.276,277.888,366.32,279.315,366.67z"/>
								<path style="fill:#D25C2C;" d="M294.108,379.949c0,0-5.65,7.091-8.809,7.484c-3.145,0.393-7.746-3.145-7.746-3.145
									s-6.96,5.125-9.202,5.388c-0.349,0.044-0.641,0-0.903-0.087c4.092-3.582,6.014-7.994,6.727-8.227
									c0.859-0.291,7.077,0.874,9.814,0.145c1.675-0.437,6.043-2.766,9.028-5.169
									C293.992,378.391,294.108,379.949,294.108,379.949z"/>
							</g>
							<path style="fill:none;stroke:#D25C2C;stroke-linecap:round;stroke-linejoin:round;stroke-miterlimit:10;" d="
								M247.547,385.052c0,0,9.596-11.616,10.101-11.904"/>
							<path style="fill:none;stroke:#D25C2C;stroke-linecap:round;stroke-linejoin:round;stroke-miterlimit:10;" d="
								M256.566,385.629c0,0,7.792-10.822,8.369-11.255s4.545-0.216,4.545-0.216"/>
							<path style="fill:none;stroke:#D25C2C;stroke-linecap:round;stroke-linejoin:round;stroke-miterlimit:10;" d="
								M266.522,385.774c0,0,6.349-8.08,7.503-8.441c1.154-0.361,5.772,0.216,5.772,0.216"/>
						</g>
					</g>
				</g>
				<g>
					<g>
						<path style="fill:#CA404E;" d="M276.009,259.838c-0.116,0.844-0.277,1.587-0.48,2.213c-0.277,0.83-0.626,1.441-1.019,1.689
							c-2.446,1.529-14.459-4.339-14.459-4.339l-1.354-4.878c0.015-0.058,0.451-0.495,1.179-1.136
							c0.859-0.786,2.14-1.864,3.582-2.97c3.218-2.417,7.28-4.907,9.61-4.223C276.097,247.098,276.781,254.902,276.009,259.838z"/>
						<path style="opacity:0.3;fill:#4A6C8F;" d="M275.529,262.051c-0.277,0.83-0.626,1.441-1.019,1.689
							c-2.446,1.529-14.459-4.339-14.459-4.339l0.029-0.015c0.437-0.102,5.708-1.383,10.993-0.087
							C273.447,259.882,274.961,260.916,275.529,262.051z"/>
						<path style="opacity:0.3;fill:#4A6C8F;" d="M269.545,255.776c0.349,1.005-7.601,2.621-7.601,2.621l-1.864,0.99l-0.029,0.015
							l-1.354-4.878c0.015-0.058,0.451-0.495,1.179-1.136c0.218,0.218,0.903,0.131,2.155-0.408c5.067-2.169,6.334-2.344,7.237-1.543
							c0.903,0.815-7.237,4.077-7.237,4.077S269.18,254.786,269.545,255.776z"/>
						<path style="opacity:0.7;fill:#FFFFFF;" d="M276.484,259.363c-0.335-3.567-0.888-11.707-3.946-12.187
							c-2.388-0.379-6.392,1.558-8.605,2.767c3.218-2.417,7.28-4.907,9.61-4.223C276.572,246.623,277.256,254.427,276.484,259.363z"
							/>
					</g>
					<g>
						<path style="fill:#CA404E;" d="M280.465,289.746c0.073,0.204-0.626,0.189-1.674,0.058c-2.898-0.349-8.547-1.587-8.547-1.587
							l-4.092,7.018l-7.077-21.477v-0.015l-4.048-12.246l5.242-0.772c0,0,0.845,1.209,2.213,3.131
							c1.718,2.461,4.281,6.086,6.916,9.858C274.684,281.242,280.319,289.338,280.465,289.746z"/>
						<path style="opacity:0.6;fill:#4A6C8F;" d="M262.818,270.831c0,0.641-3.829-5.373-3.698-4.092
							c0.058,0.553,0,3.626-0.044,7.004l-4.048-12.246l5.242-0.772c0,0,0.845,1.209,2.213,3.131
							C262.643,266.784,262.818,270.453,262.818,270.831z"/>
						<path style="opacity:0.7;fill:#FFFFFF;" d="M280.465,289.746c0.073,0.204-0.626,0.189-1.674,0.058
							c-0.655-0.83-1.179-1.529-1.267-1.718c-0.146-0.291-4.339-7.688-8.125-14.371
							C274.632,281.167,280.148,288.859,280.465,289.746z"/>
					</g>
					<g>
						<path style="fill:#CA404E;" d="M256.447,261.09c0,0-0.871,4.665-1.969,10.471c-1.919,10.127-4.451,23.205-4.709,23.226
							c-0.373-0.078-4.334-6.234-4.334-6.234s-11.014,2.155-11.041,1.818c-0.021-0.26,9.593-16.439,14.948-25.467
							c1.849-3.131,3.143-5.295,3.211-5.446L256.447,261.09z"/>
						<path style="opacity:0.6;fill:#4A6C8F;" d="M256.447,261.09c0,0-0.871,4.665-1.969,10.471
							c-0.642-3.659-1.325-7.324-1.537-7.381c-0.163-0.043-1.706,0.278-3.599,0.724c1.849-3.131,3.143-5.295,3.211-5.446
							L256.447,261.09z"/>
					</g>
					<g>
						<path style="fill:#CA404E;" d="M263.254,258.659c-0.874,2.344-2.883,4.077-6.276,4.077c-4.98,0-6.145-1.616-6.698-5.329
							c-0.393-2.737-0.582-5.417,2.068-6.552c0.932-0.422,2.228-0.626,3.99-0.583c3.626,0.087,7.237,0.99,7.411,4.878
							C263.808,256.373,263.647,257.581,263.254,258.659z"/>
						<path style="opacity:0.3;fill:#4A6C8F;" d="M263.254,258.659c-0.874,2.344-2.883,4.077-6.276,4.077
							c-4.98,0-6.145-1.616-6.698-5.329c-0.393-2.737-0.582-5.417,2.068-6.552c0.117,1.689,1.806,3.247,2.635,5.824
							C255.799,259.227,260.182,259.809,263.254,258.659z"/>
					</g>
					<g>
						<path style="fill:#CA404E;" d="M253.867,260.344c-0.217,0.51-0.402,0.82-0.402,0.82s-13.826,5.181-15.45,1.825
							c-0.077-0.139-0.139-0.309-0.217-0.495c-0.634-1.639-1.144-4.609-1.129-7.485c0.031-3.99,1.083-7.81,4.222-7.764
							c2.861,0.046,5.954,1.345,8.32,2.614c0.557,0.294,1.067,0.588,1.531,0.866c0.016,0.015,0.031,0.015,0.031,0.015
							c1.469,0.882,2.397,1.593,2.397,1.593C255.816,254.962,254.594,258.72,253.867,260.344z"/>
						<path style="opacity:0.3;fill:#4A6C8F;" d="M253.465,261.163c0,0-13.826,5.181-15.45,1.825
							c-0.077-0.139-0.139-0.309-0.217-0.495c1.655-0.974,3.944-1.748,6.449-2.103C251.068,259.431,253.465,261.163,253.465,261.163
							z"/>
						<path style="opacity:0.3;fill:#4A6C8F;" d="M253.867,260.344c-1.609-0.773-4.949-2.413-5.336-2.753
							c-0.51-0.433,4.856-1.021,4.408-1.392c-0.449-0.371-6.031-0.727-6.031-1.175c0.077-0.433,5.366,0.371,5.66-0.216
							c0.17-0.356-0.356-2.165-1.794-4.067c1.469,0.882,2.397,1.593,2.397,1.593C255.816,254.962,254.594,258.72,253.867,260.344z"
							/>
						<path style="opacity:0.7;fill:#FFFFFF;" d="M249.212,249.858c-2.227-0.65-6.465-1.577-8.985-0.278
							c-1.779,0.928-2.923,3.139-3.557,5.428c0.041-5.275,2.339-7.792,4.222-7.764C243.753,247.291,246.846,248.59,249.212,249.858z
							"/>
					</g>
				</g>
				<g>
					<path style="fill:#DC8865;" d="M264.245,242.22c0,0-5.023,3.8-13.876,3.247c-9.246-0.582-14.211-4.98-14.211-5.504
						c0-0.466,2.621-30.534,3.058-35.528c0.044-0.451,0.058-0.699,0.058-0.699l22.205,17.167l1.762,13.527L264.245,242.22z"/>
					<path style="fill:#18203D;" d="M263.24,234.43c-12.77-0.218-20.997-12.42-24.025-29.995c0.044-0.451,0.058-0.699,0.058-0.699
						l22.205,17.167L263.24,234.43z"/>
				</g>
				<g>
					<g>
						<path style="fill:#DB9431;" d="M278.181,178.194h-4.795v1.249c-4.306,2.345-7.322,7.748-7.322,14.043
							s3.016,11.698,7.322,14.043v1.249h4.795c6.692,0,12.117-6.847,12.117-15.292S284.873,178.194,278.181,178.194z"/>
						<ellipse style="fill:#18203D;" cx="273.386" cy="193.486" rx="12.117" ry="15.292"/>
						<ellipse style="fill:#18203D;" cx="273.386" cy="193.486" rx="8.1" ry="10.222"/>
					</g>
					<g>
						<path style="fill:#DC8865;" d="M279.65,190.122c-1.441,15.332-2.475,26.035-8.198,31.582
							c-1.078,1.048-2.315,1.908-3.757,2.577c-1.951,0.917-4.426,1.005-7.12,0.422c-9.858-2.111-22.758-13.177-24.768-25.467
							c-2.33-14.269-3.378-38.018,15.565-42.08c1.835-0.408,3.844-0.612,6.072-0.612c3.596,0,6.669,0.393,9.26,1.136
							C280.305,161.539,281.077,174.818,279.65,190.122z"/>
						<path style="opacity:0.7;fill:#FFFFFF;" d="M279.65,190.122c-1.441,15.332-2.475,26.035-8.198,31.582
							c3.145-7.149,4.31-16.716,5.795-27.52c2.053-14.925-0.262-27.869-10.542-36.504
							C280.305,161.539,281.077,174.818,279.65,190.122z"/>
						<path style="fill:#D25C2C;" d="M260.575,224.703c-9.858-2.111-22.758-13.177-24.768-25.467
							c-2.33-14.269-3.378-38.018,15.565-42.08c2.796,12.173,0.306,22.729-1.689,37.232
							C247.66,209.211,253.979,218.369,260.575,224.703z"/>
					</g>
					<g>
						<path style="fill:#82435C;" d="M287.92,171.775c-1.893,9.071-7.497,12.059-7.818,12.204c0.073-0.306,0.906-8.168-2.166-16.788
							c0,0-11.872,4.788-25.326-3.614c0,0,2.344,8.78-4.485,10.542c0,0-4.106,9.756-3.902,16.381
							c0.189,6.64-6.829,6.436-6.829,6.436s-10.338-4.878-12.493-20.283c-0.684-4.878-0.146-9.625,1.441-13.76
							c1.922-5.023,5.402-9.159,10.134-11.59c3.684-1.893,8.125-2.737,13.206-2.155c0,0,15.216-5.271,25.365-1.558
							c10.134,3.698,7.805,12.872,7.805,12.872s2.49,0.684,4.077,3.218C288.022,165.398,288.706,167.975,287.92,171.775z"/>
						<path style="fill:#4B1C4A;" d="M287.92,171.775c-1.893,9.071-7.497,12.059-7.818,12.204c0.073-0.306,0.906-8.168-2.166-16.788
							c0,0-11.872,4.788-25.326-3.614c0,0,2.344,8.78-4.485,10.542c0,0-4.106,9.756-3.902,16.381
							c0.189,6.64-6.829,6.436-6.829,6.436s-10.338-4.878-12.493-20.283c-0.684-4.878-0.146-9.625,1.441-13.76
							c7.091,11.867,19.366,5.97,19.366,5.97l-1.471-13.731c0,0,13.41,4.077,22.729,6.203
							C276.286,163.461,287.294,160.971,287.92,171.775z"/>
						<path style="fill:#FFFFFF;" d="M280.698,161.495c0,0,2.286-8.824-8.343-12.741c-10.629-3.931-25.496,2.781-25.496,2.781
							s-4.266-1.441-10.382-0.233c3.684-1.893,8.125-2.737,13.206-2.155c0,0,15.216-5.271,25.365-1.558
							c10.134,3.698,7.805,12.872,7.805,12.872s2.49,0.684,4.077,3.218C283.945,161.947,280.698,161.495,280.698,161.495z"/>
					</g>
					<g>
						<path style="fill:#18203D;" d="M236.058,178.194h-4.795v1.249c-4.306,2.345-7.322,7.748-7.322,14.043
							s3.016,11.698,7.322,14.043v1.249h4.795c6.692,0,12.117-6.847,12.117-15.292S242.751,178.194,236.058,178.194z"/>
						<path style="fill:#DB9431;" d="M229.028,178.656h8.756c0,0,2.651-27.955,21.85-32.133h-6.827
							c-6.542,0-12.718,3.209-16.3,8.684C233.323,160.074,230.254,167.494,229.028,178.656z"/>
						<g>
							<path style="fill:#18203D;" d="M263.199,215.142h-3.966c-1.108,0-2.007-0.898-2.007-2.007v-0.926
								c0-1.108,0.898-2.007,2.007-2.007h3.966c1.108,0,2.007,0.898,2.007,2.007v0.926
								C265.206,214.244,264.308,215.142,263.199,215.142z"/>
							<g>
								<path style="fill:#18203D;" d="M239.236,207.805l3.519,3.748c1.378,1.467,3.301,2.3,5.313,2.3h10.936
									c0.603,0,1.092-0.489,1.092-1.092s-0.489-1.092-1.092-1.092h-10.936c-1.41,0-2.756-0.583-3.721-1.611l-3.519-3.748
									c-0.413-0.44-1.104-0.462-1.544-0.049C238.845,206.674,238.824,207.365,239.236,207.805L239.236,207.805z"/>
							</g>
						</g>
						<ellipse style="fill:#DB9431;" cx="231.263" cy="193.486" rx="12.117" ry="15.292"/>
						<ellipse style="fill:#18203D;" cx="231.263" cy="193.486" rx="8.1" ry="10.222"/>
					</g>
				</g>
				<g>
					<g>
						<path style="fill:#D6DD40;" d="M214.097,272.812c0,0-19.322,54.865-28.859,67.736c-9.523,12.872-19.803,2.504-22.889-6.509
							c-3.087-9.013-1.587-20.618,8.198-43.522c1.587-3.728,3.189-7.382,4.79-10.891c8.212-18.084,16.424-32.558,23.938-34.989
							c2.402-0.772,4.426-0.772,6.115-0.204C215.772,247.928,214.097,272.812,214.097,272.812z"/>
						<path style="opacity:0.7;fill:#FFFFFF;" d="M205.39,244.433c-4.645,1.995-8.3,3.975-9.93,5.635
							c-3.291,3.393-12.508,17.531-20.123,29.558c8.212-18.084,16.424-32.558,23.938-34.989
							C201.677,243.865,203.701,243.865,205.39,244.433z"/>
					</g>
					<g>
						<path style="fill:#D6DD40;" d="M231.09,252.223c0,0-1.441,3.334-3.844,8.693c-9.654,21.637-38.993,83.098-47.657,85.777
							c-4.703,1.456-9.028-0.597-12.391-4.31c-2.432-2.65-4.368-6.159-5.606-9.814c-1.005-2.941-1.558-5.999-1.558-8.78
							c0-11.066,13.906-35.018,22.147-45.313c5.693-7.12,16.585-21.812,23.341-30.242c3.014-3.771,5.213-6.29,5.751-6.305
							c1.66-0.073,3.203,0.029,4.645,0.277c5.795,0.888,9.799,3.844,12.246,6.305C230.143,250.534,231.09,252.223,231.09,252.223z"
							/>
						<path style="fill:#CA404E;" d="M231.09,252.223c0,0-1.441,3.334-3.844,8.693c-12.216,0.233-19.191-8.227-21.724-12.682
							c3.014-3.771,5.213-6.29,5.751-6.305C225.076,241.375,231.09,252.223,231.09,252.223z"/>
						<path style="opacity:0.3;fill:#4A6C8F;" d="M231.09,252.223c0,0-1.441,3.334-3.844,8.693
							c-9.654,21.637-38.993,83.098-47.657,85.777c-4.703,1.456-9.028-0.597-12.391-4.31c10.964-8.387,16.512-22.278,18.609-25.86
							c2.825-4.805-5.926-1.412-7.63-3.393c-1.573-1.849,44.177-46.128,49.987-64.62C230.143,250.534,231.09,252.223,231.09,252.223
							z"/>
						<path style="opacity:0.7;fill:#FFFFFF;" d="M215.918,242.205c-11.357,13.396-41.469,51.865-47.919,66.688
							c-4.587,10.527-5.795,18.9-6.407,23.676c-1.005-2.941-1.558-5.999-1.558-8.78c0-11.066,13.906-35.018,22.147-45.313
							c5.693-7.12,16.585-21.812,23.341-30.242c3.014-3.771,5.213-6.29,5.751-6.305
							C212.933,241.856,214.476,241.958,215.918,242.205z"/>
						<path style="opacity:0.3;fill:#4A6C8F;" d="M231.09,252.223c-1.558,0.204-2.999,0.262-4.339,0.204
							c-8.693-0.378-12.915-5.737-14.59-8.649c-0.626-1.107-0.888-1.849-0.888-1.849c0.67-0.029,1.311-0.029,1.937,0.015
							c7.222,0.262,12.085,3.684,14.896,6.509C230.129,250.505,231.09,252.223,231.09,252.223z"/>
						<g>
							<g>
								<path style="fill:#DC8865;" d="M243.539,213.258c0,0.524-1.602,14.036-1.922,14.881c-0.32,0.859-8.926,6.814-8.926,6.814
									l-4.587,13.498l-1.354,3.975c-4.033-0.175-7.091-1.412-9.391-3.014c-2.665-1.806-4.295-4.077-5.198-5.635l1.048-1.835
									l7.528-13.352c0,0-0.262-14.342,0.248-19.613v-0.015c0.073-0.743,0.16-1.281,0.262-1.602
									c0.845-2.548,11.736-22.132,13.25-22.511c0.408-0.102,1.107,0.437,1.573,0.845c0.262,0.247,0.451,0.437,0.451,0.437
									s3.087-2.548,3.931-2.344c0.844,0.218,1.063,2.446,1.063,2.446s1.704-1.165,3.087-0.524
									c1.383,0.626,1.063,4.572,1.063,4.572s2.432,0.102,2.927,1.602c0.029,0.029,0.029,0.058,0.044,0.102
									C249.072,193.572,243.539,212.72,243.539,213.258z"/>
								<path style="opacity:0.7;fill:#FFFFFF;" d="M236.07,185.695c-0.437,0.48-0.844,0.946-1.048,1.15
									c-0.481,0.466-12.26,17.516-14.037,22.118c0.073-0.743,0.16-1.281,0.262-1.602c0.845-2.548,11.736-22.132,13.25-22.511
									C234.905,184.749,235.604,185.288,236.07,185.695z"/>
								<path style="fill:#D25C2C;" d="M243.539,213.258c0,0.524-1.602,14.036-1.922,14.881c-0.32,0.859-8.926,6.814-8.926,6.814
									l-4.587,13.498l-1.354,3.975c-4.033-0.175-7.091-1.412-9.391-3.014c3.276-5.023,6.96-10.79,7.309-11.751
									c0.626-1.762,0.117-7.644,0-8.023c0-0.364,12.508-0.131,13.381-2.999c0.888-2.883,1.631-14.4,1.878-15.274
									c0.218-0.728,7.353-11.751,8.663-19.482c0.029,0.029,0.029,0.058,0.044,0.102
									C249.072,193.572,243.539,212.72,243.539,213.258z"/>
							</g>
							<path style="fill:none;stroke:#D25C2C;stroke-linecap:round;stroke-linejoin:round;stroke-miterlimit:10;" d="
								M235.852,187.76c0,0-5.583,10.821-7.928,15.594"/>
							<path style="fill:none;stroke:#D25C2C;stroke-linecap:round;stroke-linejoin:round;stroke-miterlimit:10;" d="
								M239.956,189.184c0,0-5.636,11.126-7.478,15.564"/>
							<path style="fill:none;stroke:#D25C2C;stroke-linecap:round;stroke-linejoin:round;stroke-miterlimit:10;" d="
								M244.311,192.199c0,0-5.605,10.035-7.28,14.222"/>
						</g>
					</g>
				</g>
			</g>
			<g>
				<g>
					<path style="fill:#CA404E;" d="M238.149,387.225h96.529c1.789,0,3.239,1.45,3.239,3.239v0.329c0,1.789-1.45,3.239-3.239,3.239
						h-96.529c-1.789,0-3.239-1.45-3.239-3.239v-0.329C234.91,388.676,236.36,387.225,238.149,387.225z"/>
					<path style="fill:#18203D;" d="M238.149,387.225h24.627c1.789,0,3.239,1.45,3.239,3.239v0.329c0,1.789-1.45,3.239-3.239,3.239
						h-24.627c-1.789,0-3.239-1.45-3.239-3.239v-0.329C234.91,388.676,236.36,387.225,238.149,387.225z"/>
				</g>
				<g>
					<g>
						<path style="fill:#18203D;" d="M398.48,367.509h-95.922c-4.361,0-7.649-3.963-6.844-8.249l17.558-93.486
							c0.618-3.292,3.494-5.678,6.844-5.678h95.922c4.361,0,7.648,3.963,6.844,8.249l-17.558,93.486
							C404.706,365.124,401.83,367.509,398.48,367.509z"/>
						<path style="fill:#CA404E;" d="M428.934,268.342l-17.561,93.492c-0.617,3.29-3.496,5.675-6.84,5.675h-95.918
							c-4.359,0-7.649-3.962-6.841-8.253l1.618-8.623l6.745-35.944l9.185-48.912c0.617-3.29,3.496-5.689,6.854-5.689h95.918
							c0.466,0,0.932,0.041,1.371,0.137c0.617,0.123,1.206,0.329,1.741,0.617C427.878,262.173,429.537,265.176,428.934,268.342z"/>
						<path style="opacity:0.3;fill:#4A6C8F;" d="M428.934,268.342l-17.561,93.492c-0.617,3.29-3.496,5.675-6.84,5.675h-95.918
							c-4.359,0-7.649-3.962-6.841-8.253l1.618-8.623c10.035,1.837,23.277-0.713,36.286-18.027
							c26.224-34.902,37.465,7.499,48.994-16.711c9.952-20.892,23.112-47.294,36.533-55.053
							C427.878,262.173,429.537,265.176,428.934,268.342z"/>
						<path style="opacity:0.7;fill:#FFFFFF;" d="M422.093,260.09c0.466,0,0.932,0.041,1.371,0.137l-95.096,3.413
							c-2.714,0.096-5.059,1.96-5.758,4.592c-2.331,8.787-7.732,29.062-12.475,46.458l9.185-48.912
							c0.617-3.29,3.496-5.689,6.854-5.689H422.093z"/>
					</g>
					<g>
						<g>
							<path style="fill:#CA404E;" d="M297.373,385.152h60.84c1.789,0,3.239,1.45,3.239,3.239v2.402c0,1.789-1.45,3.239-3.239,3.239
								h-60.84c-1.789,0-3.239-1.45-3.239-3.239v-2.402C294.134,386.603,295.584,385.152,297.373,385.152z"/>
							<path style="fill:#18203D;" d="M297.373,385.152h34.099c1.789,0,3.239,1.45,3.239,3.239v2.402
								c0,1.789-1.45,3.239-3.239,3.239h-34.099c-1.789,0-3.239-1.45-3.239-3.239v-2.402
								C294.134,386.603,295.584,385.152,297.373,385.152z"/>
						</g>
						<g>
							<path style="fill:#18203D;" d="M368.411,394.032h-18.226c-2.06,0-3.687-1.747-3.541-3.802l4.378-61.542
								c0.132-1.858,1.678-3.298,3.541-3.298h9.471c1.863,0,3.409,1.44,3.541,3.298l4.378,61.542
								C372.098,392.285,370.471,394.032,368.411,394.032z"/>
							<path style="fill:#CA404E;" d="M372.759,394.032h-18.226c-2.06,0-3.687-1.747-3.541-3.802l4.378-61.542
								c0.132-1.858,1.678-3.298,3.541-3.298h9.471c1.863,0,3.409,1.44,3.541,3.298l4.377,61.542
								C376.446,392.285,374.818,394.032,372.759,394.032z"/>
						</g>
					</g>
				</g>
				<g>
					<path style="fill:#EABC32;" d="M427.489,400.053v5.653c0,3.331-2.701,6.032-6.032,6.032H103.51
						c-3.331,0-6.032-2.701-6.032-6.032v-5.653c0-1.198,0.347-2.312,0.956-3.247c1.072-1.671,2.942-2.774,5.076-2.774h317.948
						C424.788,394.032,427.489,396.733,427.489,400.053z"/>
					<g>
						<path style="fill:#DB9431;" d="M241.232,394.029h-68.813c-13.799,3.243-27.23,8.05-40.588,12.746
							c-4.814,1.695-9.618,3.371-14.426,4.96h12.985c0.946-0.331,1.891-0.662,2.836-0.995c20.336-7.161,40.484-14.411,61.424-16.079
							c3.341-0.267,6.683-0.391,10.025-0.391c21.59-0.005,43.225,5.196,64.627,10.425c8.089,1.969,16.19,4.013,23.703,7.039h9.877
							c-10.165-5.614-21.587-8.429-32.583-11.122C260.71,398.275,251.015,395.921,241.232,394.029z"/>
						<path style="fill:#DB9431;" d="M240.613,402.477c-12.724-2.931-26.012-5.23-39.194-5.231c-9.915,0-19.777,1.305-29.253,4.649
							c-7.07,2.498-13.613,6.024-19.918,9.841h8.426c4.186-2.279,8.454-4.314,12.891-5.877c8.934-3.152,18.305-4.409,27.854-4.409
							c12.692-0.002,25.684,2.227,38.25,5.124c7.001,1.61,14.017,3.427,21.073,5.162h19.243
							C266.884,409.215,253.815,405.527,240.613,402.477z"/>
						<path style="fill:#DB9431;" d="M351.003,396.83c18.001,5.965,36.957,8.989,55.914,8.989c6.872,0,13.742-0.417,20.569-1.216
							v-4.237c-6.824,0.819-13.695,1.25-20.569,1.25c-17.2,0-34.404-2.554-50.847-7.587h-12.899
							C345.761,395.006,348.365,395.955,351.003,396.83z"/>
						<path style="fill:#DB9431;" d="M282.576,394.029h-14.387c0.91,0.267,1.822,0.533,2.73,0.805
							c17.989,5.384,35.839,11.67,54.015,16.901h16.285C321.503,406.92,302.15,400.2,282.576,394.029z"/>
						<path style="fill:#DB9431;" d="M140.449,394.029h-15.7c-9.052,2.333-18.081,4.187-27.161,4.899
							c-0.069,0.366-0.109,0.742-0.109,1.128v3.092c13.391-0.997,26.454-4.38,39.412-8.091
							C138.078,394.717,139.264,394.374,140.449,394.029z"/>
						<path style="fill:#DB9431;" d="M355.966,406.231c-13.749-3.473-29.465-8.092-42.828-12.202h-14.094
							c6.518,2.067,14.325,4.498,22.593,6.972c10.938,3.273,22.676,6.621,33.3,9.305c1.985,0.501,3.93,0.979,5.823,1.429h21.248
							l0.027-0.293C375.893,410.877,366.489,408.892,355.966,406.231z"/>
					</g>
					<path style="opacity:0.3;fill:#DB9431;" d="M427.489,400.053v5.653c0,3.331-2.701,6.032-6.032,6.032H103.51
						c-3.331,0-6.032-2.701-6.032-6.032v-5.653c0-1.198,0.347-2.312,0.956-3.247c0.305,3.415,1.534,6.473,4.298,8.564
						c3.005,2.259,7.03,2.574,10.802,2.533c20.46-0.242,39.973-8.386,60.233-11.233c28.152-3.962,56.566,2.396,84.791,5.801
						c48.464,5.864,97.968,2.995,145.413-8.438h17.486C424.788,394.032,427.489,396.733,427.489,400.053z"/>
				</g>
				<g>
					<g>
						<polygon style="fill:#DB9431;" points="172.979,356.515 172.58,366.235 171.456,394.029 146.845,394.029 145.322,356.515 
													"/>
						<polygon style="fill:#FFFFFF;" points="171.877,383.714 146.429,383.714 145.819,368.655 172.487,368.655 						"/>
						<path style="opacity:0.3;fill:#4A6C8F;" d="M155.305,370.869c0.231,0.673,3.1,14.354,4.939,23.16h-13.398l-1.524-37.514
							h27.658l-0.399,9.72C167.084,367.37,155.042,370.081,155.305,370.869z"/>
					</g>
					<polygon style="fill:#CA404E;" points="175.27,356.515 175.008,362.095 174.871,365.048 143.43,365.048 143.031,356.515 					
						"/>
					<path style="opacity:0.3;fill:#4A6C8F;" d="M175.008,362.095l-0.137,2.953H143.43l-0.399-8.533h5.853
						c2.648,2.942,5.969,6.053,6.83,5.99C156.671,362.431,167.547,362.232,175.008,362.095z"/>
					<g>
						<polygon style="fill:#CA404E;" points="171.456,356.515 146.845,356.515 148.874,349.842 169.428,349.842 171.414,356.389 
													"/>
						<path style="opacity:0.3;fill:#4A6C8F;" d="M171.456,356.515h-24.61l2.028-6.673h5.38c0.589,2.459,2.091,4.529,2.091,4.529
							l15.069,2.018L171.456,356.515z"/>
					</g>
				</g>
			</g>
		</g>
		<g>
			<g>
				<g>
					<path style="fill:#DB9431;" d="M376.609,164.107h-55.138c-3.502,0-6.336,2.847-6.336,6.336v27.953
						c0,3.502,2.834,6.336,6.336,6.336h32.555l12.736,27.659v-27.659h9.848c3.502,0,6.336-2.834,6.336-6.336v-27.953
						C382.946,166.954,380.111,164.107,376.609,164.107z"/>
					<g>
						<circle style="fill:#FFFFFF;" cx="333.171" cy="183.413" r="4.516"/>
						<circle style="fill:#FFFFFF;" cx="349.04" cy="183.413" r="4.516"/>
						<circle style="fill:#FFFFFF;" cx="364.91" cy="183.413" r="4.516"/>
					</g>
				</g>
				<g>
					<path style="fill:#FFFFFF;" d="M401.088,181.06h55.138c3.502,0,6.336,2.847,6.336,6.337v27.953
						c0,3.502-2.834,6.336-6.336,6.336h-32.555l-30.955,27.659l18.219-27.659h-9.848c-3.502,0-6.336-2.834-6.336-6.336v-27.953
						C394.752,183.907,397.586,181.06,401.088,181.06z"/>
				</g>
				<g>
					<path style="fill:#DB9431;" d="M446.938,213.847h-35.153c-1.248,0-2.26-1.012-2.26-2.26v-19.331c0-1.248,1.012-2.26,2.26-2.26
						h35.153c1.248,0,2.26,1.012,2.26,2.26v19.331C449.198,212.835,448.186,213.847,446.938,213.847z"/>
					<polyline style="fill:none;stroke:#FFFFFF;stroke-miterlimit:10;" points="446.72,193.906 429.361,201.921 412.003,193.906 
											"/>
				</g>
				<path style="fill:#52908A;" d="M445.44,176.159h-51.178v-11.707c0-2.347,1.903-4.25,4.25-4.25h46.928
					c2.347,0,4.25,1.903,4.25,4.25v7.457C449.69,174.256,447.787,176.159,445.44,176.159z"/>
			</g>
			<g>
				<path style="fill:#52908A;" d="M122.775,204.657c0,4.184,0.516,7.815,3.723,10.249c0.793,0.608,1.779,0.774,2.783,0.774h1.631
					c1.742,0,3.152,1.41,3.152,3.143v12.295c0,1.733-1.41,3.143-3.152,3.143h-5.345c-0.876,0-1.714-0.359-2.313-1.005
					c-2.977-3.235-11.769-14.018-11.769-28.598c0-14.58,8.792-25.363,11.769-28.598c0.599-0.645,1.438-1.005,2.313-1.005h5.345
					c1.742,0,3.152,1.41,3.152,3.143v12.295c0,1.733-1.41,3.143-3.152,3.143h-1.631c-1.005,0-1.991,0.166-2.783,0.774
					C123.292,196.841,122.775,200.473,122.775,204.657z"/>
				<g>
					<path style="fill:#EABC32;" d="M172.521,188.81v1.461l-27.829-3.01c-0.705-0.076-1.321,0.476-1.321,1.186v6.311v6.311
						c0,0.709,0.616,1.262,1.321,1.186l27.829-3.01v1.461c0,1.062,1.285,1.594,2.036,0.843l5.948-5.948
						c0.466-0.466,0.466-1.221,0-1.687l-5.948-5.948C173.806,187.215,172.521,187.747,172.521,188.81z"/>
					<path style="fill:#CA404E;" d="M152.199,220.504v-1.461l27.829,3.01c0.705,0.076,1.321-0.476,1.321-1.186v-6.311v-6.311
						c0-0.709-0.615-1.262-1.321-1.186l-27.829,3.01v-1.461c0-1.063-1.285-1.595-2.036-0.843l-5.948,5.948
						c-0.466,0.466-0.466,1.221,0,1.687l5.948,5.948C150.914,222.098,152.199,221.566,152.199,220.504z"/>
				</g>
			</g>
			<g>
				<g>
					<path style="fill:#DB9431;" d="M319.789,136.464c-1.246-1.417-1.108-3.577,0.31-4.824c1.417-1.247,3.577-1.108,4.823,0.309
						c1.246,1.417,1.108,3.577-0.31,4.824C323.195,138.02,321.036,137.882,319.789,136.464z"/>
					<path style="fill:#447777;" d="M298.14,142.166c-1.047-1.191-0.931-3.005,0.26-4.052c1.191-1.047,3.004-0.931,4.052,0.26
						c1.047,1.191,0.931,3.005-0.26,4.051C301.001,143.473,299.187,143.357,298.14,142.166z"/>
					<path style="fill:#C9414E;" d="M294.944,160.437c-0.661-0.751-0.587-1.896,0.164-2.557c0.751-0.661,1.896-0.587,2.557,0.164
						c0.661,0.752,0.587,1.896-0.164,2.557S295.605,161.189,294.944,160.437z"/>
				</g>
				<g>
					<path style="fill:#DB9431;" d="M88.008,257.93c-1.792-0.591-2.766-2.524-2.175-4.317s2.524-2.766,4.317-2.175
						c1.792,0.591,2.766,2.524,2.175,4.317C91.733,257.548,89.8,258.521,88.008,257.93z"/>
					<path style="fill:#447777;" d="M74.15,263.268c-1.506-0.497-2.323-2.12-1.827-3.626c0.497-1.506,2.12-2.323,3.626-1.827
						c1.506,0.497,2.323,2.12,1.826,3.626C77.279,262.947,75.655,263.765,74.15,263.268z"/>
					<path style="fill:#C9414E;" d="M80.418,278.979c-0.95-0.314-1.467-1.338-1.153-2.289c0.314-0.95,1.338-1.467,2.289-1.153
						c0.95,0.314,1.466,1.338,1.153,2.289C82.393,278.776,81.368,279.292,80.418,278.979z"/>
				</g>
				<g>
					<path style="fill:#C9414E;" d="M471.989,236.491c1.372,2.54,0.426,5.711-2.114,7.083c-2.54,1.372-5.711,0.426-7.083-2.114
						c-1.372-2.54-0.425-5.711,2.114-7.083C467.445,233.005,470.617,233.951,471.989,236.491z"/>
					<path style="fill:#DB9431;" d="M474.392,264.517c0.36,0.666,0.112,1.497-0.554,1.857c-0.666,0.36-1.497,0.111-1.857-0.554
						c-0.36-0.666-0.112-1.497,0.554-1.857C473.201,263.603,474.033,263.851,474.392,264.517z"/>
					<path style="fill:#DB9431;" d="M454.188,233.94c0.618,1.143,0.192,2.571-0.952,3.189c-1.143,0.618-2.571,0.191-3.189-0.952
						c-0.618-1.143-0.192-2.571,0.952-3.189C452.143,232.37,453.57,232.796,454.188,233.94z"/>
				</g>
			</g>
		</g>
	</g>
</g>
</svg>
